<svg xmlns="http://www.w3.org/2000/svg" width="1876" height="503" fill="none"><path fill="#D43B38" fill-rule="evenodd" d="M368.095 194.807c-13.741 0-25.191 4.482-34.352 13.765-8.834 9.284-13.414 21.128-13.414 35.854 0 15.044 4.58 27.21 13.414 36.494 9.161 9.281 20.611 14.084 34.352 14.084 13.087 0 24.538-4.803 33.371-14.084 9.16-9.604 13.74-21.77 13.74-36.174 0-14.726-4.58-26.57-13.413-35.853-8.833-9.284-20.284-14.086-33.698-14.086Zm-45.803-34.892v18.567c7.852-7.363 16.358-13.125 25.519-16.968 9.16-3.839 18.975-5.761 29.445-5.761 22.573 0 41.876 8.323 57.58 24.97 16.031 16.966 23.883 38.414 23.883 64.343 0 25.29-8.179 46.417-24.537 63.384-16.358 16.966-35.988 25.61-58.235 25.61-10.142 0-19.303-1.601-27.809-5.123-8.833-3.521-17.34-9.284-25.846-17.287V392H278.78V159.915h43.512Zm-176.667 34.892c-13.413 0-24.864 4.802-33.697 14.086-8.835 9.283-13.415 21.127-13.415 35.853 0 14.404 4.58 26.57 13.742 36.174 8.831 9.281 20.284 14.084 33.37 14.084 13.741 0 25.191-4.803 34.352-14.084 8.834-9.284 13.414-21.45 13.414-36.494 0-14.726-4.58-26.57-13.414-35.854-9.161-9.283-20.611-13.765-34.352-13.765Zm45.802-34.892h43.514v169.982h-43.514V311.97c-8.505 7.683-17.012 13.446-25.518 16.967-8.833 3.522-17.994 5.123-28.136 5.123-22.248 0-41.878-8.644-58.236-25.61C63.179 291.483 55 270.356 55 245.066c0-25.929 7.852-47.377 23.883-64.343 15.704-16.647 35.007-24.97 57.909-24.97 10.141 0 19.957 1.922 29.117 5.761 9.161 3.843 17.666 9.605 25.518 16.968v-18.567Zm383.933 32.738c-13.631 0-24.666 4.547-33.755 13.964-8.763 9.416-13.307 21.431-13.307 35.72 0 14.936 4.544 27.277 13.307 36.371 8.764 9.415 20.124 13.963 33.431 13.963 13.631 0 24.992-4.548 33.755-13.963 9.088-9.418 13.631-21.435 13.631-36.371 0-14.613-4.543-26.628-13.306-35.72-8.763-9.417-20.125-13.964-33.756-13.964Zm-.649-40.591c16.228 0 31.483 3.897 45.765 12.015 14.604 8.118 25.64 19.159 33.755 33.123 8.114 13.963 12.008 28.901 12.008 45.137s-3.894 31.499-12.008 45.461c-8.115 14.291-19.151 25.33-33.106 33.124-13.957 8.118-29.537 12.016-46.414 12.016-24.668 0-45.764-8.769-63.29-26.303-17.527-17.537-26.29-38.97-26.29-63.973 0-26.953 9.736-49.359 29.536-67.22 17.526-15.587 37.324-23.38 60.044-23.38Zm369.646 42.486c-13.748 0-24.876 4.486-34.04 13.776-8.838 9.289-13.419 21.142-13.419 35.237 0 14.735 4.581 26.909 13.419 35.88 8.837 9.288 20.292 13.774 33.713 13.774 13.745 0 25.201-4.486 34.039-13.774 9.163-9.291 13.746-21.145 13.746-35.88 0-14.416-4.583-26.268-13.419-35.237-8.838-9.29-20.293-13.776-34.039-13.776Zm-.656-40.042c16.366 0 31.749 3.844 46.15 11.853 14.729 8.008 25.859 18.9 34.039 32.675 8.18 13.774 12.11 28.51 12.11 44.527s-3.93 31.074-12.11 44.847c-8.18 14.098-19.31 24.988-33.385 32.676-14.073 8.009-29.784 11.854-46.804 11.854-24.874 0-46.148-8.65-63.823-25.948-17.674-17.299-26.51-38.443-26.51-63.108 0-26.589 9.818-48.692 29.783-66.311 17.675-15.377 37.64-23.065 60.55-23.065ZM778.745 328.772h43.532V93h-43.532v235.772Zm-78.549 0h43.531V93h-43.531v235.772Z" clip-rule="evenodd"/><path fill="#1A1919" d="M1063.92 185.8h33.12V328h47.52V185.8h41.04v-41.4h-41.04V92.2h-47.52v52.2h-33.12v41.4ZM1624.51 328h47.52v-94.06c0-20.16 16.2-36.36 36.72-36.36s35.28 16.2 35.28 37.8V328h47.52V227.46c0-43.56-30.24-73.8-73.08-73.8-18.72 0-35.28 5.76-46.44 15.84V92.2h-47.52V328Zm-238.26-29.474-34.85-25.856c-12.28 14.586-24.56 20.884-41.82 20.884-25.22 0-42.14-13.26-46.46-33.811h127.77c.67-6.299 1-12.597 1-17.569 0-50.054-36.17-88.174-85.96-88.174-51.1 0-90.93 39.446-90.93 90.163 0 51.048 40.49 88.837 95.58 88.837 31.53 0 58.41-12.265 75.67-34.474Zm-121.8-73.589c5.31-18.563 18.92-32.154 41.15-32.154 21.57 0 36.84 12.928 39.5 32.154h-80.65ZM1588 280.294l-40.49-19.225c-6.3 18.894-23.89 31.49-44.14 31.49-26.55 0-47.46-21.546-47.46-49.059 0-27.513 20.91-49.059 47.46-49.059 18.25 0 33.85 9.944 41.15 25.855l39.17-21.546c-15.27-27.844-45.8-44.75-80.32-44.75-52.1 0-93.59 39.778-93.59 89.5s41.49 89.5 93.92 89.5c37.51 0 70.36-20.552 84.3-52.706Z"/><path fill="#D43B38" d="M1068.81 383.985c2.88 2.25 7.29 3.69 11.39 3.69 6.84 0 11.52-4.005 11.52-10.08 0-4.32-2.39-7.2-8.01-9.54l-1.58-.675c-3.91-1.62-5.31-2.925-5.31-4.59 0-1.98 1.89-3.33 4.5-3.33 1.94 0 4.14.72 6.57 2.115l3.2-5.31c-2.52-1.665-6.53-2.79-10.08-2.79-6.53 0-10.85 3.825-10.85 9.63 0 4.41 2.52 7.38 8.42 9.765l1.35.585c3.64 1.485 5.04 2.745 5.04 4.545 0 2.16-1.98 3.6-4.95 3.6-2.57 0-5.49-1.125-7.83-2.925l-3.38 5.31Zm93.49-13.41c0 9.585 7.7 17.1 17.46 17.1 9.77 0 17.51-7.515 17.51-17.1 0-9.54-7.74-17.1-17.51-17.1-9.76 0-17.46 7.56-17.46 17.1Zm6.89 0c0-6.12 4.63-10.935 10.57-10.935s10.62 4.815 10.62 10.935-4.68 10.935-10.62 10.935c-5.94 0-10.57-4.815-10.57-10.935ZM1268.8 387h6.39v-13.59h13.59v-5.625h-13.59v-7.74h14.58v-5.895h-20.97V387Zm101.38 0h6.44v-26.955h10.35v-5.895h-27.14v5.895h10.35V387Zm95.8 0h7.25l6.97-23.04h.36l6.98 23.04h7.24l9.68-32.85h-6.71l-6.93 24.57-7.42-24.57h-5.99l-7.42 24.435-6.89-24.435h-6.66l9.54 32.85Zm102.52 0h6.75l2.84-6.75h15.21l2.74 6.75h6.93l-13.72-32.85h-6.75l-14 32.85Zm11.93-12.42 5.31-12.735 5.22 12.735h-10.53Zm92.76 12.42h6.39v-13.14h1.71l9.27 13.14h7.96l-10.08-13.455c5-1.08 8.33-4.77 8.33-9.585 0-5.76-4.73-9.81-11.34-9.81h-12.24V387Zm6.39-18.315v-9.09h4.99c3.15 0 5.4 1.89 5.4 4.5 0 2.655-2.29 4.59-5.4 4.59h-4.99ZM1768.72 387h21.74v-5.895h-15.35v-7.92h13.86l.05-5.625h-13.91v-7.515h14.67v-5.895h-21.06V387Z"/></svg>